HIERARCHY
ROOT joint_0
{
	OFFSET 0.000000 0.000000 0.000000
	CHANNELS 6 Xposition Yposition Zposition Zrotation Yrotation Xrotation 
	JOINT joint_1
	{
		OFFSET 0.000000 0.000000 0.000000
		CHANNELS 3 Zrotation Yrotation Xrotation
		JOINT joint_2
		{
			OFFSET 3.811170 -8.520760 0.839290
			CHANNELS 3 Zrotation Yrotation Xrotation
			JOINT joint_3
			{
				OFFSET 2.562200 -7.039590 0.000000
				CHANNELS 3 Zrotation Yrotation Xrotation
				JOINT joint_4
				{
					OFFSET 0.157640 -0.433110 2.322550
					CHANNELS 3 Zrotation Yrotation Xrotation
					End Site
					{
						OFFSET 0.000000 0.000000 0.000000
					}
				}
			}
		}
	}
	JOINT joint_5
	{
		OFFSET 0.000000 0.000000 0.000000
		CHANNELS 3 Zrotation Yrotation Xrotation
		JOINT joint_6
		{
			OFFSET -3.848050 -8.780180 0.839290
			CHANNELS 3 Zrotation Yrotation Xrotation
			JOINT joint_7
			{
				OFFSET -2.568260 -7.056230 0.000000
				CHANNELS 3 Zrotation Yrotation Xrotation
				JOINT joint_8
				{
					OFFSET -0.164730 -0.452590 2.363150
					CHANNELS 3 Zrotation Yrotation Xrotation
					End Site
					{
						OFFSET 0.000000 0.000000 0.000000
					}
				}
			}
		}
	}
	JOINT joint_9
	{
		OFFSET 0.028270 2.035590 -0.193380
		CHANNELS 3 Zrotation Yrotation Xrotation
		JOINT joint_10
		{
			OFFSET 0.056720 2.048850 -0.042750
			CHANNELS 3 Zrotation Yrotation Xrotation
			JOINT joint_11
			{
				OFFSET -0.054170 1.746240 0.172020
				CHANNELS 3 Zrotation Yrotation Xrotation
				JOINT joint_12
				{
					OFFSET 0.104070 1.761360 -0.123970
					CHANNELS 3 Zrotation Yrotation Xrotation
					End Site
					{
						OFFSET 0.000000 0.000000 0.000000
					}
				}
			}
			JOINT joint_13
			{
				OFFSET 3.362410 1.200890 -0.311210
				CHANNELS 3 Zrotation Yrotation Xrotation
				JOINT joint_14
				{
					OFFSET 4.983000 -0.000000 -0.000000
					CHANNELS 3 Zrotation Yrotation Xrotation
					JOINT joint_15
					{
						OFFSET 3.483560 -0.000000 -0.000000
						CHANNELS 3 Zrotation Yrotation Xrotation
						JOINT joint_16
						{
							OFFSET 0.715260 -0.000000 -0.000000
							CHANNELS 3 Zrotation Yrotation Xrotation
							End Site
							{
								OFFSET 0.000000 0.000000 0.000000
							}
						}
					}
				}
			}
			JOINT joint_17
			{
				OFFSET -3.136600 1.374050 -0.404650
				CHANNELS 3 Zrotation Yrotation Xrotation
				JOINT joint_18
				{
					OFFSET -5.241900 -0.000000 -0.000000
					CHANNELS 3 Zrotation Yrotation Xrotation
					JOINT joint_19
					{
						OFFSET -3.444170 -0.000000 -0.000000
						CHANNELS 3 Zrotation Yrotation Xrotation
						JOINT joint_20
						{
							OFFSET -0.622530 -0.000000 -0.000000
							CHANNELS 3 Zrotation Yrotation Xrotation
							End Site
							{
								OFFSET 0.000000 0.000000 0.000000
							}
						}
					}
				}
			}
		}
	}
}
MOTION
Frames: 13
Frame Time: 0.031667
-2.459858 14.507683 5.742495 170.276443 -42.221558 178.379807 -39.698476 -26.542129 -25.388815 -11.122131 9.966356 25.248671 -11.129522 6.470217 -18.649496 1.256334 -2.175283 -2.980410 -10.412017 -5.698795 11.328715 16.680384 1.526388 -7.369617 -12.549064 -9.460352 -75.293596 0.149003 0.704537 -2.132282 1.686073 0.608039 1.226636 -2.663607 -1.484353 -4.701932 7.040852 -1.205430 3.843586 -0.080777 0.802915 8.571421 -65.629249 -2.432339 -0.112991 15.066688 -46.955998 1.602503 2.828024 3.980098 5.281119 -6.564444 -0.500160 0.532754 110.493377 12.771516 50.456759 -81.881066 76.429620 -37.840224 1.866040 -3.081352 2.555543 7.726909 -0.582157 0.573830 
-2.618448 14.527208 5.658350 170.375656 -37.557163 178.634201 -37.148576 -24.277418 -27.926347 -10.942560 9.160863 27.028798 -6.002264 5.311460 -9.494641 1.601005 -2.592897 -4.059660 -10.723310 -6.807915 12.246347 15.664385 1.990143 -5.924198 -13.811996 -11.693634 -76.934224 0.209851 0.487276 -1.571171 0.791074 1.185518 0.371440 -1.641756 -1.085159 -4.904930 6.976598 -1.185857 2.549156 0.022588 1.113055 8.139994 -62.282690 -1.646410 0.293359 14.947422 -48.289531 0.297870 3.450073 3.237463 5.835478 -6.545775 -0.510886 0.546867 109.983533 10.722155 49.942592 -83.804598 77.717084 -38.262429 2.117216 -3.144086 0.419664 7.752685 -0.597054 0.588613 
-2.764054 14.545231 5.564871 170.413406 -32.941769 178.892181 -34.470903 -20.145920 -33.432467 -11.530453 11.479795 29.085754 -3.276183 3.706118 -5.578603 1.936809 -3.219602 -5.843127 -9.815176 -7.292150 10.641328 16.710051 0.463109 -5.144793 -14.170909 -10.214425 -77.941995 0.146731 0.673906 -2.077560 0.311520 2.493997 1.771118 -2.701710 -0.723210 -4.687216 6.825152 -1.121489 1.816400 0.494972 1.357304 7.523596 -60.851868 -1.253800 0.602558 15.097213 -48.318159 1.975895 2.205459 4.730982 7.062983 -6.542288 -0.508882 0.550070 110.258138 11.115264 50.523219 -83.294664 76.902371 -40.704183 2.612648 -3.170771 -1.656966 7.772765 -0.595294 0.588061 
-2.906213 14.562422 5.467940 170.488632 -28.315804 179.197021 -32.977675 -18.512529 -34.831667 -10.745200 12.258190 30.775125 0.526421 2.444615 -3.993454 2.157859 -3.846761 -7.633756 -9.005712 -7.379447 10.829720 15.765833 -0.000190 -3.730329 -14.074293 -12.816062 -77.808390 0.080683 1.190248 -3.462319 0.037213 1.208198 2.872924 -1.114883 -0.861926 -4.826667 7.339164 -1.431523 0.565049 0.763353 1.333698 6.842987 -57.932608 -0.041238 1.907860 15.221672 -49.886787 1.315915 3.256123 4.333810 5.951254 -6.559308 -0.496263 0.537276 110.131309 11.965629 49.834055 -88.246652 77.384588 -42.067017 2.155762 -2.673960 -2.709195 7.770784 -0.584192 0.576206 
-3.037075 14.576888 5.359700 170.548111 -23.823706 179.467407 -29.056394 -15.095946 -37.281786 -10.055952 12.100552 31.712804 0.364255 -1.252099 -4.901592 2.134308 -3.180493 -5.694078 -9.001369 -7.230174 10.787854 16.044605 0.779153 -4.577366 -13.402221 -9.537285 -74.951425 0.150974 1.109654 -3.250503 0.478262 1.946270 2.905938 -1.983789 0.026351 -4.166736 6.559206 0.329878 0.421214 1.079752 1.475341 6.210599 -56.505945 -0.190505 1.333631 15.550770 -50.885076 0.159997 2.531901 4.751243 5.229856 -6.536827 -0.505758 0.550407 110.843982 12.297285 48.637221 -98.438997 77.865133 -41.672333 1.948014 -2.737836 -2.968611 7.802563 -0.595725 0.587344 
-3.164959 14.590025 5.247998 170.648514 -19.354546 179.764572 -26.937825 -13.655208 -39.562770 -11.110555 12.823584 32.776238 2.375750 -3.854463 -4.795407 2.090678 -2.320882 -3.191803 -10.029335 -8.136718 10.646154 17.155672 -0.564182 -4.617104 -11.939293 -10.995585 -72.052285 0.196045 0.810169 -2.435543 -0.433332 4.003665 2.572714 -1.775140 0.252511 -3.410586 6.621217 0.247013 -0.002877 1.352578 1.566050 5.732436 -55.647484 1.271419 1.277311 15.439347 -52.058045 0.258593 3.378598 3.735287 2.721508 -6.525719 -0.517594 0.563703 109.042792 12.982452 48.276141 -95.826371 78.313625 -42.983778 2.238900 -3.125394 -4.106373 7.833913 -0.609263 0.599689 
-3.282469 14.598531 5.124234 170.778320 -15.053505 -179.976471 -25.409708 -11.040808 -41.915705 -10.475418 13.000054 32.986759 3.421615 -4.668093 -4.498558 2.136733 -1.958040 -2.161250 -9.958211 -8.711711 12.080840 16.487007 -0.906388 -5.460426 -9.839205 -9.671831 -67.572140 0.242141 0.757709 -2.265539 -0.225200 4.346106 2.873591 -1.657418 1.086175 -3.009414 6.056669 -0.391079 -0.087207 1.394371 1.706731 5.000477 -55.150080 1.273902 0.442443 17.293882 -53.430958 -0.275692 2.507690 4.750855 0.026381 -6.537866 -0.519859 0.558902 108.437368 14.021340 47.676311 -98.410910 78.198605 -40.773405 2.299669 -3.325698 -4.598419 7.843633 -0.608114 0.596006 
-3.397201 14.605514 4.997565 170.957077 -10.781870 -179.693497 -23.002282 -8.090031 -42.779636 -10.770514 13.132240 33.047166 4.405117 -8.726399 -3.279281 2.175012 -1.848861 -1.798216 -9.956588 -9.184410 12.295573 16.753805 -0.250997 -7.579856 -8.652812 -6.464809 -64.577462 0.446024 0.907320 -2.661107 -0.111714 3.109356 2.815552 -2.576087 1.001559 -2.674704 5.383706 0.613340 0.032141 1.447479 1.794202 4.744671 -54.950528 1.567965 -0.708962 16.581973 -55.099179 -0.286339 2.361146 4.111226 -2.001008 -6.525355 -0.527680 0.562719 108.997459 15.745310 46.767674 -103.702328 78.357854 -42.975123 3.062067 -2.759958 -4.993555 7.851210 -0.615358 0.601041 
-3.501622 14.606843 4.860115 171.189468 -6.673385 -179.448105 -21.314310 -6.355487 -42.459159 -11.182282 13.198980 32.073444 4.695753 -10.320319 -1.408968 1.901865 -0.934033 0.677467 -11.697703 -10.041950 14.175147 18.033433 1.034019 -10.118711 -7.360703 -6.454106 -61.835788 0.328892 0.743516 -2.202891 -0.282878 5.800946 1.755273 -1.655265 0.638134 -0.873856 4.728840 0.806252 -0.174138 1.525039 1.761635 4.441176 -55.771135 0.691035 -1.332097 16.546029 -55.432083 -0.266405 3.501801 4.856761 -3.893611 -6.514096 -0.528578 0.563457 108.581714 16.478293 46.147015 -101.062704 78.793452 -42.310199 2.059627 -3.514909 -4.086149 7.847661 -0.616020 0.601602 
-3.603539 14.607029 4.720396 171.478287 -2.584581 -179.173004 -20.032448 -4.322262 -44.326696 -11.008672 13.615700 31.870853 4.843687 -12.310294 -0.832939 1.559807 -0.885508 0.767666 -11.607548 -10.315142 15.154816 17.860387 2.240866 -13.460763 -6.970326 -6.730720 -60.660924 0.155256 0.971933 -2.815424 -0.820843 5.587693 1.863345 -3.084843 1.224762 -1.453320 3.255376 0.613951 0.396622 1.748775 1.658974 4.118290 -56.291024 0.566804 -1.967187 18.749329 -56.209713 -1.557689 2.503072 4.037615 -5.111230 -6.510417 -0.531963 0.560475 108.780820 17.694573 44.904257 -101.675552 78.405351 -41.601380 2.489408 -3.787159 -3.448006 7.848068 -0.616302 0.599708 
-3.695530 14.602684 4.571686 171.832626 1.375654 -178.939560 -19.673244 -2.678651 -44.130386 -11.566488 13.543043 30.371851 4.997822 -13.935959 -1.254172 1.237548 -0.822067 0.712229 -13.461342 -8.865718 16.087052 18.359638 2.269074 -15.527598 -7.553132 -8.141805 -61.266599 0.029915 1.334990 -3.723519 -0.973627 6.072398 0.999337 -2.471208 2.437671 -0.428338 3.341758 1.672448 0.164218 1.771287 1.627837 4.013004 -56.544491 0.880204 -2.587005 17.730110 -57.990300 -1.800995 2.547686 5.096174 -6.189278 -6.538840 -0.512069 0.528054 109.103912 17.759815 44.828999 -103.578099 78.782423 -41.140592 2.669968 -2.718735 -2.315497 7.813958 -0.590473 0.570389 
-3.785338 14.597994 4.421126 172.246323 5.330235 -178.664795 -18.081797 -2.081097 -43.984793 -12.359466 13.976247 29.979969 5.636917 -14.515967 -3.789592 1.152574 -0.715076 0.986421 -14.505094 -8.622084 16.274638 18.275509 2.672742 -16.938325 -8.602411 -9.952234 -59.563018 0.109254 0.988584 -2.768750 -1.497762 5.810053 -0.990755 -1.628360 1.058899 0.572732 2.381103 1.225662 1.561567 1.581679 1.564533 4.342783 -57.900062 -0.741981 -2.150617 19.076814 -58.606462 -1.621946 2.614318 4.626904 -5.719277 -6.533321 -0.519814 0.528270 108.816077 17.935705 43.906757 -100.110476 78.890680 -39.925722 2.818970 -3.629200 -0.918989 7.821912 -0.590717 0.569719 
-3.865871 14.591835 4.262709 172.722534 9.200757 -178.432083 -18.299496 -2.013081 -44.575098 -12.415476 14.336722 30.447265 5.366306 -15.600862 -4.198063 1.111368 -0.336326 1.953960 -15.125473 -9.244288 15.360037 19.438935 2.185386 -17.333725 -8.586068 -11.866788 -60.261265 0.214448 0.523869 -1.478285 -1.758094 4.806245 0.185813 -2.586833 1.757886 0.427121 1.793005 -0.111051 2.705938 1.424996 1.594192 4.516403 -57.896254 -1.190332 -1.492990 21.455167 -59.894360 -2.531747 2.096424 5.296541 -6.434645 -6.534390 -0.513710 0.518726 108.295821 17.531790 42.419571 -104.197353 78.346567 -40.115145 2.786761 -3.553471 -0.112987 7.815709 -0.581701 0.559988 
